<svg width="1600" height="900" viewBox="0 0 1600 900" fill="none" xmlns="http://www.w3.org/2000/svg">
  <rect width="1600" height="900" rx="48" fill="#071A2C"/>
  <rect width="1600" height="900" rx="48" fill="url(#bg)"/>
  <g opacity="0.18">
    <circle cx="1260" cy="164" r="220" fill="#4FC3F7"/>
    <circle cx="304" cy="760" r="260" fill="#38BDF8"/>
    <circle cx="1394" cy="722" r="168" fill="#7DD3FC"/>
  </g>
  <g opacity="0.16" stroke="#E0F2FE" stroke-width="2">
    <path d="M112 238H1488"/>
    <path d="M112 304H1488"/>
    <path d="M112 370H1488"/>
    <path d="M112 436H1488"/>
    <path d="M112 502H1488"/>
    <path d="M112 568H1488"/>
    <path d="M112 634H1488"/>
  </g>
  <rect x="104" y="120" width="252" height="44" rx="22" fill="#0F172A" fill-opacity="0.58" stroke="#7DD3FC" stroke-opacity="0.45"/>
  <text x="230" y="148" text-anchor="middle" fill="#E0F2FE" font-family="Segoe UI, Arial, sans-serif" font-size="22" font-weight="700" letter-spacing="3">MY NOTES</text>
  <text x="112" y="272" fill="#F8FAFC" font-family="Segoe UI, Arial, sans-serif" font-size="86" font-weight="800">Docker Basics</text>
  <text x="112" y="356" fill="#BAE6FD" font-family="Segoe UI, Arial, sans-serif" font-size="38" font-weight="600">Container vs VM</text>
  <text x="112" y="408" fill="#BAE6FD" font-family="Segoe UI, Arial, sans-serif" font-size="38" font-weight="600">Image vs Container</text>
  <text x="112" y="500" fill="#E2E8F0" font-family="Segoe UI, Arial, sans-serif" font-size="28">Belajar konsep dasar Docker dari nol,</text>
  <text x="112" y="544" fill="#E2E8F0" font-family="Segoe UI, Arial, sans-serif" font-size="28">mulai dari container, VM, image, sampai runtime.</text>
  <g transform="translate(980 268)">
    <rect x="0" y="132" width="126" height="82" rx="14" fill="#DFF6FD"/>
    <rect x="140" y="132" width="126" height="82" rx="14" fill="#B8ECFB"/>
    <rect x="280" y="132" width="126" height="82" rx="14" fill="#8FDEF8"/>
    <rect x="140" y="38" width="126" height="82" rx="14" fill="#74D2F6"/>
    <rect x="280" y="38" width="126" height="82" rx="14" fill="#4FC3F7"/>
    <rect x="420" y="132" width="126" height="82" rx="14" fill="#2AA4F4"/>
    <path d="M4 236C66 236 122 224 170 200C214 178 250 146 278 106C302 72 330 50 366 40C400 31 439 34 484 50C511 59 534 73 554 90C548 130 536 164 518 192C478 252 406 292 300 312C210 328 112 330 4 318V236Z" fill="#0B2441"/>
    <circle cx="580" cy="206" r="18" fill="#E2E8F0"/>
    <circle cx="626" cy="184" r="12" fill="#E2E8F0"/>
    <circle cx="658" cy="206" r="10" fill="#E2E8F0"/>
  </g>
  <defs>
    <linearGradient id="bg" x1="102" y1="92" x2="1516" y2="838" gradientUnits="userSpaceOnUse">
      <stop stop-color="#0C4A6E"/>
      <stop offset="0.48" stop-color="#0369A1"/>
      <stop offset="1" stop-color="#082F49"/>
    </linearGradient>
  </defs>
</svg>
